<mxfile host="Electron" modified="2024-05-06T14:04:35.354Z" agent="Mozilla/5.0 (X11; Linux x86_64) AppleWebKit/537.36 (KHTML, like Gecko) draw.io/24.2.5 Chrome/120.0.6099.109 Electron/28.1.0 Safari/537.36" etag="DgbLX1lA7le_I-uEI0MZ" version="24.2.5" type="device">
  <diagram name="Page-1" id="b5b7bab2-c9e2-2cf4-8b2a-24fd1a2a6d21">
    <mxGraphModel dx="989" dy="619" grid="1" gridSize="10" guides="1" tooltips="1" connect="1" arrows="1" fold="1" page="1" pageScale="1" pageWidth="827" pageHeight="1169" background="none" math="0" shadow="0">
      <root>
        <mxCell id="0" />
        <mxCell id="1" parent="0" />
        <mxCell id="keCxKg6TDDwjZgesL6dW-48" value="Entity Relationship of Database" style="swimlane;startSize=40;fontStyle=0;fillColor=none;fontSize=16;" parent="1" vertex="1">
          <mxGeometry x="24" y="20" width="420" height="520" as="geometry">
            <mxRectangle x="60" y="50" width="140" height="30" as="alternateBounds" />
          </mxGeometry>
        </mxCell>
        <mxCell id="keCxKg6TDDwjZgesL6dW-62" value="Heros" style="swimlane;fontStyle=0;childLayout=stackLayout;horizontal=1;startSize=26;fillColor=none;horizontalStack=0;resizeParent=1;resizeParentMax=0;resizeLast=0;collapsible=1;marginBottom=0;whiteSpace=wrap;html=1;" parent="keCxKg6TDDwjZgesL6dW-48" vertex="1">
          <mxGeometry x="26" y="53" width="140" height="182" as="geometry">
            <mxRectangle x="57" y="50" width="100" height="30" as="alternateBounds" />
          </mxGeometry>
        </mxCell>
        <mxCell id="keCxKg6TDDwjZgesL6dW-63" value="name" style="text;strokeColor=none;fillColor=none;align=left;verticalAlign=top;spacingLeft=4;spacingRight=4;overflow=hidden;rotatable=0;points=[[0,0.5],[1,0.5]];portConstraint=eastwest;whiteSpace=wrap;html=1;" parent="keCxKg6TDDwjZgesL6dW-62" vertex="1">
          <mxGeometry y="26" width="140" height="26" as="geometry" />
        </mxCell>
        <mxCell id="keCxKg6TDDwjZgesL6dW-66" value="hp" style="text;strokeColor=#666666;fillColor=#f5f5f5;align=left;verticalAlign=top;spacingLeft=4;spacingRight=4;overflow=hidden;rotatable=0;points=[[0,0.5],[1,0.5]];portConstraint=eastwest;whiteSpace=wrap;html=1;fontColor=#333333;" parent="keCxKg6TDDwjZgesL6dW-62" vertex="1">
          <mxGeometry y="52" width="140" height="26" as="geometry" />
        </mxCell>
        <mxCell id="keCxKg6TDDwjZgesL6dW-67" value="strength" style="text;strokeColor=none;fillColor=none;align=left;verticalAlign=top;spacingLeft=4;spacingRight=4;overflow=hidden;rotatable=0;points=[[0,0.5],[1,0.5]];portConstraint=eastwest;whiteSpace=wrap;html=1;" parent="keCxKg6TDDwjZgesL6dW-62" vertex="1">
          <mxGeometry y="78" width="140" height="26" as="geometry" />
        </mxCell>
        <mxCell id="keCxKg6TDDwjZgesL6dW-64" value="xp" style="text;strokeColor=#666666;fillColor=#f5f5f5;align=left;verticalAlign=top;spacingLeft=4;spacingRight=4;overflow=hidden;rotatable=0;points=[[0,0.5],[1,0.5]];portConstraint=eastwest;whiteSpace=wrap;html=1;shadow=0;fontColor=#333333;" parent="keCxKg6TDDwjZgesL6dW-62" vertex="1">
          <mxGeometry y="104" width="140" height="26" as="geometry" />
        </mxCell>
        <mxCell id="keCxKg6TDDwjZgesL6dW-65" value="level" style="text;strokeColor=none;fillColor=none;align=left;verticalAlign=top;spacingLeft=4;spacingRight=4;overflow=hidden;rotatable=0;points=[[0,0.5],[1,0.5]];portConstraint=eastwest;whiteSpace=wrap;html=1;" parent="keCxKg6TDDwjZgesL6dW-62" vertex="1">
          <mxGeometry y="130" width="140" height="26" as="geometry" />
        </mxCell>
        <mxCell id="J_8SCp2FD8T-etfwv4nt-28" value="gold" style="text;strokeColor=#666666;fillColor=#f5f5f5;align=left;verticalAlign=top;spacingLeft=4;spacingRight=4;overflow=hidden;rotatable=0;points=[[0,0.5],[1,0.5]];portConstraint=eastwest;whiteSpace=wrap;html=1;fontColor=#333333;" vertex="1" parent="keCxKg6TDDwjZgesL6dW-62">
          <mxGeometry y="156" width="140" height="26" as="geometry" />
        </mxCell>
        <mxCell id="keCxKg6TDDwjZgesL6dW-68" value="Enemies" style="swimlane;fontStyle=0;childLayout=stackLayout;horizontal=1;startSize=26;horizontalStack=0;resizeParent=1;resizeParentMax=0;resizeLast=0;collapsible=1;marginBottom=0;whiteSpace=wrap;html=1;" parent="keCxKg6TDDwjZgesL6dW-48" vertex="1">
          <mxGeometry x="250" y="330" width="140" height="130" as="geometry">
            <mxRectangle x="240" y="240" width="100" height="30" as="alternateBounds" />
          </mxGeometry>
        </mxCell>
        <mxCell id="keCxKg6TDDwjZgesL6dW-69" value="name" style="text;align=left;verticalAlign=top;spacingLeft=4;spacingRight=4;overflow=hidden;rotatable=0;points=[[0,0.5],[1,0.5]];portConstraint=eastwest;whiteSpace=wrap;html=1;" parent="keCxKg6TDDwjZgesL6dW-68" vertex="1">
          <mxGeometry y="26" width="140" height="26" as="geometry" />
        </mxCell>
        <mxCell id="keCxKg6TDDwjZgesL6dW-70" value="hp" style="text;strokeColor=#666666;fillColor=#f5f5f5;align=left;verticalAlign=top;spacingLeft=4;spacingRight=4;overflow=hidden;rotatable=0;points=[[0,0.5],[1,0.5]];portConstraint=eastwest;whiteSpace=wrap;html=1;fontColor=#333333;" parent="keCxKg6TDDwjZgesL6dW-68" vertex="1">
          <mxGeometry y="52" width="140" height="26" as="geometry" />
        </mxCell>
        <mxCell id="keCxKg6TDDwjZgesL6dW-71" value="&lt;font color=&quot;#000000&quot;&gt;strength&lt;/font&gt;" style="text;strokeColor=none;fillColor=none;align=left;verticalAlign=top;spacingLeft=4;spacingRight=4;overflow=hidden;rotatable=0;points=[[0,0.5],[1,0.5]];portConstraint=eastwest;whiteSpace=wrap;html=1;fontColor=#333333;" parent="keCxKg6TDDwjZgesL6dW-68" vertex="1">
          <mxGeometry y="78" width="140" height="26" as="geometry" />
        </mxCell>
        <mxCell id="keCxKg6TDDwjZgesL6dW-72" value="xp" style="text;strokeColor=#666666;fillColor=#f5f5f5;align=left;verticalAlign=top;spacingLeft=4;spacingRight=4;overflow=hidden;rotatable=0;points=[[0,0.5],[1,0.5]];portConstraint=eastwest;whiteSpace=wrap;html=1;fontColor=#333333;" parent="keCxKg6TDDwjZgesL6dW-68" vertex="1">
          <mxGeometry y="104" width="140" height="26" as="geometry" />
        </mxCell>
        <mxCell id="dC71RjP6gdRrrfViqa-_-8" value="Dungeons" style="swimlane;fontStyle=0;childLayout=stackLayout;horizontal=1;startSize=26;fillColor=none;horizontalStack=0;resizeParent=1;resizeParentMax=0;resizeLast=0;collapsible=1;marginBottom=0;whiteSpace=wrap;html=1;" parent="keCxKg6TDDwjZgesL6dW-48" vertex="1">
          <mxGeometry x="250" y="53" width="140" height="78" as="geometry">
            <mxRectangle x="240" y="240" width="100" height="30" as="alternateBounds" />
          </mxGeometry>
        </mxCell>
        <mxCell id="dC71RjP6gdRrrfViqa-_-9" value="name" style="text;strokeColor=none;fillColor=none;align=left;verticalAlign=top;spacingLeft=4;spacingRight=4;overflow=hidden;rotatable=0;points=[[0,0.5],[1,0.5]];portConstraint=eastwest;whiteSpace=wrap;html=1;" parent="dC71RjP6gdRrrfViqa-_-8" vertex="1">
          <mxGeometry y="26" width="140" height="26" as="geometry" />
        </mxCell>
        <mxCell id="dC71RjP6gdRrrfViqa-_-10" value="gold" style="text;strokeColor=#666666;fillColor=#f5f5f5;align=left;verticalAlign=top;spacingLeft=4;spacingRight=4;overflow=hidden;rotatable=0;points=[[0,0.5],[1,0.5]];portConstraint=eastwest;whiteSpace=wrap;html=1;fontColor=#333333;" parent="dC71RjP6gdRrrfViqa-_-8" vertex="1">
          <mxGeometry y="52" width="140" height="26" as="geometry" />
        </mxCell>
        <mxCell id="J_8SCp2FD8T-etfwv4nt-16" value="Enemy_list" style="swimlane;fontStyle=0;childLayout=stackLayout;horizontal=1;startSize=26;fillColor=none;horizontalStack=0;resizeParent=1;resizeParentMax=0;resizeLast=0;collapsible=1;marginBottom=0;whiteSpace=wrap;html=1;" vertex="1" parent="keCxKg6TDDwjZgesL6dW-48">
          <mxGeometry x="250" y="190" width="140" height="78" as="geometry">
            <mxRectangle x="240" y="240" width="100" height="30" as="alternateBounds" />
          </mxGeometry>
        </mxCell>
        <mxCell id="J_8SCp2FD8T-etfwv4nt-17" value="dungeon_id" style="text;strokeColor=none;fillColor=none;align=left;verticalAlign=top;spacingLeft=4;spacingRight=4;overflow=hidden;rotatable=0;points=[[0,0.5],[1,0.5]];portConstraint=eastwest;whiteSpace=wrap;html=1;" vertex="1" parent="J_8SCp2FD8T-etfwv4nt-16">
          <mxGeometry y="26" width="140" height="26" as="geometry" />
        </mxCell>
        <mxCell id="J_8SCp2FD8T-etfwv4nt-18" value="enemy_id" style="text;strokeColor=#666666;fillColor=#f5f5f5;align=left;verticalAlign=top;spacingLeft=4;spacingRight=4;overflow=hidden;rotatable=0;points=[[0,0.5],[1,0.5]];portConstraint=eastwest;whiteSpace=wrap;html=1;fontColor=#333333;" vertex="1" parent="J_8SCp2FD8T-etfwv4nt-16">
          <mxGeometry y="52" width="140" height="26" as="geometry" />
        </mxCell>
        <mxCell id="J_8SCp2FD8T-etfwv4nt-20" value="" style="endArrow=ERzeroToMany;html=1;rounded=0;startArrow=ERmandOne;startFill=0;endFill=0;" edge="1" parent="keCxKg6TDDwjZgesL6dW-48" source="dC71RjP6gdRrrfViqa-_-8" target="J_8SCp2FD8T-etfwv4nt-16">
          <mxGeometry width="50" height="50" relative="1" as="geometry">
            <mxPoint x="296" y="290" as="sourcePoint" />
            <mxPoint x="346" y="240" as="targetPoint" />
          </mxGeometry>
        </mxCell>
        <mxCell id="J_8SCp2FD8T-etfwv4nt-23" value="" style="endArrow=ERzeroToMany;html=1;rounded=0;startArrow=ERzeroToOne;startFill=0;endFill=0;" edge="1" parent="keCxKg6TDDwjZgesL6dW-48" source="keCxKg6TDDwjZgesL6dW-68" target="J_8SCp2FD8T-etfwv4nt-16">
          <mxGeometry width="50" height="50" relative="1" as="geometry">
            <mxPoint x="156" y="340" as="sourcePoint" />
            <mxPoint x="206" y="290" as="targetPoint" />
          </mxGeometry>
        </mxCell>
        <mxCell id="J_8SCp2FD8T-etfwv4nt-25" value="All tables also contain an autoincrementing row id&amp;nbsp;" style="text;html=1;align=left;verticalAlign=middle;whiteSpace=wrap;rounded=0;" vertex="1" parent="keCxKg6TDDwjZgesL6dW-48">
          <mxGeometry x="6" y="460" width="124" height="50" as="geometry" />
        </mxCell>
        <mxCell id="keCxKg6TDDwjZgesL6dW-76" value="Use Case" style="swimlane;startSize=40;fontStyle=0;fillColor=none;fontSize=16;" parent="1" vertex="1">
          <mxGeometry x="444" y="20" width="360" height="520" as="geometry" />
        </mxCell>
        <mxCell id="keCxKg6TDDwjZgesL6dW-45" value="Game" style="swimlane;startSize=30;fontStyle=0;fillColor=none;" parent="keCxKg6TDDwjZgesL6dW-76" vertex="1">
          <mxGeometry x="130" y="65" width="200" height="415" as="geometry">
            <mxRectangle x="130" y="65" width="70" height="30" as="alternateBounds" />
          </mxGeometry>
        </mxCell>
        <mxCell id="keCxKg6TDDwjZgesL6dW-46" value="Load Hero&lt;span style=&quot;color: rgba(0, 0, 0, 0); font-family: monospace; font-size: 0px; text-align: start; text-wrap: nowrap;&quot;&gt;%3CmxGraphModel%3E%3Croot%3E%3CmxCell%20id%3D%220%22%2F%3E%3CmxCell%20id%3D%221%22%20parent%3D%220%22%2F%3E%3CmxCell%20id%3D%222%22%20value%3D%22Game%22%20style%3D%22swimlane%3BstartSize%3D30%3BfontStyle%3D0%3BfillColor%3Dnone%3B%22%20vertex%3D%221%22%20parent%3D%221%22%3E%3CmxGeometry%20x%3D%2287%22%20y%3D%22320%22%20width%3D%22260%22%20height%3D%22410%22%20as%3D%22geometry%22%2F%3E%3C%2FmxCell%3E%3CmxCell%20id%3D%223%22%20value%3D%22%22%20style%3D%22ellipse%3BwhiteSpace%3Dwrap%3Bhtml%3D1%3B%22%20vertex%3D%221%22%20parent%3D%222%22%3E%3CmxGeometry%20x%3D%2240%22%20y%3D%2240%22%20width%3D%22120%22%20height%3D%2280%22%20as%3D%22geometry%22%2F%3E%3C%2FmxCell%3E%3CmxCell%20id%3D%224%22%20value%3D%22%22%20style%3D%22swimlane%3BstartSize%3D0%3B%22%20vertex%3D%221%22%20parent%3D%222%22%3E%3CmxGeometry%20x%3D%22-60%22%20y%3D%22-20%22%20width%3D%22390%22%20height%3D%22540%22%20as%3D%22geometry%22%2F%3E%3C%2FmxCell%3E%3C%2Froot%3E%3C%2FmxGraphModel%3E&lt;/span&gt;" style="ellipse;whiteSpace=wrap;html=1;" parent="keCxKg6TDDwjZgesL6dW-45" vertex="1">
          <mxGeometry x="40" y="45" width="120" height="80" as="geometry" />
        </mxCell>
        <mxCell id="keCxKg6TDDwjZgesL6dW-77" value="Create New Hero" style="ellipse;whiteSpace=wrap;html=1;" parent="keCxKg6TDDwjZgesL6dW-45" vertex="1">
          <mxGeometry x="40" y="135" width="120" height="80" as="geometry" />
        </mxCell>
        <mxCell id="keCxKg6TDDwjZgesL6dW-78" value="Select Dungeon" style="ellipse;whiteSpace=wrap;html=1;" parent="keCxKg6TDDwjZgesL6dW-45" vertex="1">
          <mxGeometry x="40" y="225" width="120" height="80" as="geometry" />
        </mxCell>
        <mxCell id="keCxKg6TDDwjZgesL6dW-79" value="Save &amp;amp; Exit" style="ellipse;whiteSpace=wrap;html=1;" parent="keCxKg6TDDwjZgesL6dW-45" vertex="1">
          <mxGeometry x="40" y="315" width="120" height="80" as="geometry" />
        </mxCell>
        <mxCell id="keCxKg6TDDwjZgesL6dW-44" value="Player" style="shape=umlActor;verticalLabelPosition=bottom;verticalAlign=top;html=1;" parent="keCxKg6TDDwjZgesL6dW-76" vertex="1">
          <mxGeometry x="40" y="240" width="30" height="60" as="geometry" />
        </mxCell>
        <mxCell id="keCxKg6TDDwjZgesL6dW-81" value="" style="endArrow=classic;html=1;rounded=0;exitX=0.5;exitY=0.5;exitDx=0;exitDy=0;exitPerimeter=0;entryX=0;entryY=1;entryDx=0;entryDy=0;" parent="keCxKg6TDDwjZgesL6dW-76" source="keCxKg6TDDwjZgesL6dW-44" target="keCxKg6TDDwjZgesL6dW-46" edge="1">
          <mxGeometry width="50" height="50" relative="1" as="geometry">
            <mxPoint x="130" y="270" as="sourcePoint" />
            <mxPoint x="180" y="220" as="targetPoint" />
          </mxGeometry>
        </mxCell>
        <mxCell id="keCxKg6TDDwjZgesL6dW-82" value="" style="endArrow=classic;html=1;rounded=0;exitX=0.5;exitY=0.5;exitDx=0;exitDy=0;exitPerimeter=0;entryX=0;entryY=0.5;entryDx=0;entryDy=0;" parent="keCxKg6TDDwjZgesL6dW-76" source="keCxKg6TDDwjZgesL6dW-44" target="keCxKg6TDDwjZgesL6dW-77" edge="1">
          <mxGeometry width="50" height="50" relative="1" as="geometry">
            <mxPoint x="30" y="351" as="sourcePoint" />
            <mxPoint x="153" y="294" as="targetPoint" />
          </mxGeometry>
        </mxCell>
        <mxCell id="keCxKg6TDDwjZgesL6dW-83" value="" style="endArrow=classic;html=1;rounded=0;exitX=0.5;exitY=0.5;exitDx=0;exitDy=0;exitPerimeter=0;entryX=0;entryY=0.5;entryDx=0;entryDy=0;" parent="keCxKg6TDDwjZgesL6dW-76" source="keCxKg6TDDwjZgesL6dW-44" target="keCxKg6TDDwjZgesL6dW-78" edge="1">
          <mxGeometry width="50" height="50" relative="1" as="geometry">
            <mxPoint x="75" y="245" as="sourcePoint" />
            <mxPoint x="180" y="250" as="targetPoint" />
          </mxGeometry>
        </mxCell>
        <mxCell id="keCxKg6TDDwjZgesL6dW-84" value="" style="endArrow=classic;html=1;rounded=0;exitX=0.5;exitY=0.5;exitDx=0;exitDy=0;exitPerimeter=0;entryX=0;entryY=0;entryDx=0;entryDy=0;" parent="keCxKg6TDDwjZgesL6dW-76" source="keCxKg6TDDwjZgesL6dW-44" target="keCxKg6TDDwjZgesL6dW-79" edge="1">
          <mxGeometry width="50" height="50" relative="1" as="geometry">
            <mxPoint x="85" y="255" as="sourcePoint" />
            <mxPoint x="190" y="260" as="targetPoint" />
          </mxGeometry>
        </mxCell>
        <mxCell id="keCxKg6TDDwjZgesL6dW-85" value="Class Daigram" style="swimlane;startSize=40;fontStyle=0;fontSize=16;" parent="1" vertex="1">
          <mxGeometry x="24" y="540" width="780" height="600" as="geometry" />
        </mxCell>
        <mxCell id="keCxKg6TDDwjZgesL6dW-87" value="Hero" style="swimlane;fontStyle=0;childLayout=stackLayout;horizontal=1;startSize=26;fillColor=none;horizontalStack=0;resizeParent=1;resizeParentMax=0;resizeLast=0;collapsible=1;marginBottom=0;whiteSpace=wrap;html=1;" parent="keCxKg6TDDwjZgesL6dW-85" vertex="1">
          <mxGeometry x="70" y="60" width="140" height="260" as="geometry">
            <mxRectangle x="57" y="50" width="100" height="30" as="alternateBounds" />
          </mxGeometry>
        </mxCell>
        <mxCell id="keCxKg6TDDwjZgesL6dW-88" value="name : string" style="text;strokeColor=none;fillColor=none;align=left;verticalAlign=top;spacingLeft=4;spacingRight=4;overflow=hidden;rotatable=0;points=[[0,0.5],[1,0.5]];portConstraint=eastwest;whiteSpace=wrap;html=1;" parent="keCxKg6TDDwjZgesL6dW-87" vertex="1">
          <mxGeometry y="26" width="140" height="26" as="geometry" />
        </mxCell>
        <mxCell id="keCxKg6TDDwjZgesL6dW-91" value="hp : int" style="text;strokeColor=#666666;fillColor=#f5f5f5;align=left;verticalAlign=top;spacingLeft=4;spacingRight=4;overflow=hidden;rotatable=0;points=[[0,0.5],[1,0.5]];portConstraint=eastwest;whiteSpace=wrap;html=1;fontColor=#333333;" parent="keCxKg6TDDwjZgesL6dW-87" vertex="1">
          <mxGeometry y="52" width="140" height="26" as="geometry" />
        </mxCell>
        <mxCell id="keCxKg6TDDwjZgesL6dW-92" value="strength&amp;nbsp;: int" style="text;align=left;verticalAlign=top;spacingLeft=4;spacingRight=4;overflow=hidden;rotatable=0;points=[[0,0.5],[1,0.5]];portConstraint=eastwest;whiteSpace=wrap;html=1;" parent="keCxKg6TDDwjZgesL6dW-87" vertex="1">
          <mxGeometry y="78" width="140" height="26" as="geometry" />
        </mxCell>
        <mxCell id="keCxKg6TDDwjZgesL6dW-89" value="xp : int" style="text;strokeColor=#666666;fillColor=#f5f5f5;align=left;verticalAlign=top;spacingLeft=4;spacingRight=4;overflow=hidden;rotatable=0;points=[[0,0.5],[1,0.5]];portConstraint=eastwest;whiteSpace=wrap;html=1;shadow=0;fontColor=#333333;" parent="keCxKg6TDDwjZgesL6dW-87" vertex="1">
          <mxGeometry y="104" width="140" height="26" as="geometry" />
        </mxCell>
        <mxCell id="keCxKg6TDDwjZgesL6dW-90" value="level&amp;nbsp;: int" style="text;align=left;verticalAlign=top;spacingLeft=4;spacingRight=4;overflow=hidden;rotatable=0;points=[[0,0.5],[1,0.5]];portConstraint=eastwest;whiteSpace=wrap;html=1;" parent="keCxKg6TDDwjZgesL6dW-87" vertex="1">
          <mxGeometry y="130" width="140" height="26" as="geometry" />
        </mxCell>
        <mxCell id="J_8SCp2FD8T-etfwv4nt-27" value="id : int" style="text;align=left;verticalAlign=top;spacingLeft=4;spacingRight=4;overflow=hidden;rotatable=0;points=[[0,0.5],[1,0.5]];portConstraint=eastwest;whiteSpace=wrap;html=1;fillColor=#f5f5f5;fontColor=#333333;strokeColor=#666666;" vertex="1" parent="keCxKg6TDDwjZgesL6dW-87">
          <mxGeometry y="156" width="140" height="26" as="geometry" />
        </mxCell>
        <mxCell id="J_8SCp2FD8T-etfwv4nt-26" value="gold : int" style="text;align=left;verticalAlign=top;spacingLeft=4;spacingRight=4;overflow=hidden;rotatable=0;points=[[0,0.5],[1,0.5]];portConstraint=eastwest;whiteSpace=wrap;html=1;" vertex="1" parent="keCxKg6TDDwjZgesL6dW-87">
          <mxGeometry y="182" width="140" height="26" as="geometry" />
        </mxCell>
        <mxCell id="dC71RjP6gdRrrfViqa-_-55" value="levelUp()" style="text;strokeColor=#666666;fillColor=#f5f5f5;align=left;verticalAlign=top;spacingLeft=4;spacingRight=4;overflow=hidden;rotatable=0;points=[[0,0.5],[1,0.5]];portConstraint=eastwest;whiteSpace=wrap;html=1;fontColor=#333333;" parent="keCxKg6TDDwjZgesL6dW-87" vertex="1">
          <mxGeometry y="208" width="140" height="26" as="geometry" />
        </mxCell>
        <mxCell id="dC71RjP6gdRrrfViqa-_-56" value="restoreHP()" style="text;align=left;verticalAlign=top;spacingLeft=4;spacingRight=4;overflow=hidden;rotatable=0;points=[[0,0.5],[1,0.5]];portConstraint=eastwest;whiteSpace=wrap;html=1;" parent="keCxKg6TDDwjZgesL6dW-87" vertex="1">
          <mxGeometry y="234" width="140" height="26" as="geometry" />
        </mxCell>
        <mxCell id="keCxKg6TDDwjZgesL6dW-93" value="Enemy" style="swimlane;fontStyle=0;childLayout=stackLayout;horizontal=1;startSize=26;fillColor=none;horizontalStack=0;resizeParent=1;resizeParentMax=0;resizeLast=0;collapsible=1;marginBottom=0;whiteSpace=wrap;html=1;" parent="keCxKg6TDDwjZgesL6dW-85" vertex="1">
          <mxGeometry x="550" y="60" width="140" height="130" as="geometry">
            <mxRectangle x="240" y="240" width="100" height="30" as="alternateBounds" />
          </mxGeometry>
        </mxCell>
        <mxCell id="keCxKg6TDDwjZgesL6dW-94" value="name &lt;font color=&quot;#333333&quot;&gt;: string&lt;/font&gt;" style="text;align=left;verticalAlign=top;spacingLeft=4;spacingRight=4;overflow=hidden;rotatable=0;points=[[0,0.5],[1,0.5]];portConstraint=eastwest;whiteSpace=wrap;html=1;" parent="keCxKg6TDDwjZgesL6dW-93" vertex="1">
          <mxGeometry y="26" width="140" height="26" as="geometry" />
        </mxCell>
        <mxCell id="keCxKg6TDDwjZgesL6dW-95" value="hp : int" style="text;strokeColor=#666666;fillColor=#f5f5f5;align=left;verticalAlign=top;spacingLeft=4;spacingRight=4;overflow=hidden;rotatable=0;points=[[0,0.5],[1,0.5]];portConstraint=eastwest;whiteSpace=wrap;html=1;fontColor=#333333;" parent="keCxKg6TDDwjZgesL6dW-93" vertex="1">
          <mxGeometry y="52" width="140" height="26" as="geometry" />
        </mxCell>
        <mxCell id="keCxKg6TDDwjZgesL6dW-96" value="strength : int" style="text;align=left;verticalAlign=top;spacingLeft=4;spacingRight=4;overflow=hidden;rotatable=0;points=[[0,0.5],[1,0.5]];portConstraint=eastwest;whiteSpace=wrap;html=1;" parent="keCxKg6TDDwjZgesL6dW-93" vertex="1">
          <mxGeometry y="78" width="140" height="26" as="geometry" />
        </mxCell>
        <mxCell id="keCxKg6TDDwjZgesL6dW-97" value="xp : int" style="text;strokeColor=#666666;fillColor=#f5f5f5;align=left;verticalAlign=top;spacingLeft=4;spacingRight=4;overflow=hidden;rotatable=0;points=[[0,0.5],[1,0.5]];portConstraint=eastwest;whiteSpace=wrap;html=1;fontColor=#333333;" parent="keCxKg6TDDwjZgesL6dW-93" vertex="1">
          <mxGeometry y="104" width="140" height="26" as="geometry" />
        </mxCell>
        <mxCell id="keCxKg6TDDwjZgesL6dW-121" style="edgeStyle=orthogonalEdgeStyle;rounded=0;orthogonalLoop=1;jettySize=auto;html=1;strokeWidth=2;endSize=13;startArrow=none;startFill=0;endArrow=diamondThin;endFill=1;" parent="keCxKg6TDDwjZgesL6dW-85" source="keCxKg6TDDwjZgesL6dW-87" target="keCxKg6TDDwjZgesL6dW-101" edge="1">
          <mxGeometry relative="1" as="geometry">
            <Array as="points">
              <mxPoint x="140" y="300" />
            </Array>
          </mxGeometry>
        </mxCell>
        <mxCell id="keCxKg6TDDwjZgesL6dW-101" value="Game" style="swimlane;fontStyle=0;childLayout=stackLayout;horizontal=1;startSize=26;fillColor=none;horizontalStack=0;resizeParent=1;resizeParentMax=0;resizeLast=0;collapsible=1;marginBottom=0;whiteSpace=wrap;html=1;" parent="keCxKg6TDDwjZgesL6dW-85" vertex="1">
          <mxGeometry x="290" y="280" width="200" height="312" as="geometry">
            <mxRectangle x="240" y="240" width="100" height="30" as="alternateBounds" />
          </mxGeometry>
        </mxCell>
        <mxCell id="dC71RjP6gdRrrfViqa-_-58" value="currentHero : std::shared_ptr" style="text;align=left;verticalAlign=top;spacingLeft=4;spacingRight=4;overflow=hidden;rotatable=0;points=[[0,0.5],[1,0.5]];portConstraint=eastwest;whiteSpace=wrap;html=1;" parent="keCxKg6TDDwjZgesL6dW-101" vertex="1">
          <mxGeometry y="26" width="200" height="26" as="geometry" />
        </mxCell>
        <mxCell id="dC71RjP6gdRrrfViqa-_-61" value="currentDungeon : std::shared_ptr" style="text;align=left;verticalAlign=top;spacingLeft=4;spacingRight=4;overflow=hidden;rotatable=0;points=[[0,0.5],[1,0.5]];portConstraint=eastwest;whiteSpace=wrap;html=1;fillColor=#f5f5f5;fontColor=#333333;strokeColor=#666666;" parent="keCxKg6TDDwjZgesL6dW-101" vertex="1">
          <mxGeometry y="52" width="200" height="26" as="geometry" />
        </mxCell>
        <mxCell id="dC71RjP6gdRrrfViqa-_-59" value="_db : QSqlDatabase" style="text;align=left;verticalAlign=top;spacingLeft=4;spacingRight=4;overflow=hidden;rotatable=0;points=[[0,0.5],[1,0.5]];portConstraint=eastwest;whiteSpace=wrap;html=1;" parent="keCxKg6TDDwjZgesL6dW-101" vertex="1">
          <mxGeometry y="78" width="200" height="26" as="geometry" />
        </mxCell>
        <mxCell id="dC71RjP6gdRrrfViqa-_-60" value="_q : QSqlQuery" style="text;align=left;verticalAlign=top;spacingLeft=4;spacingRight=4;overflow=hidden;rotatable=0;points=[[0,0.5],[1,0.5]];portConstraint=eastwest;whiteSpace=wrap;html=1;fillColor=#f5f5f5;fontColor=#333333;strokeColor=#666666;" parent="keCxKg6TDDwjZgesL6dW-101" vertex="1">
          <mxGeometry y="104" width="200" height="26" as="geometry" />
        </mxCell>
        <mxCell id="dC71RjP6gdRrrfViqa-_-57" value="menu()" style="text;align=left;verticalAlign=top;spacingLeft=4;spacingRight=4;overflow=hidden;rotatable=0;points=[[0,0.5],[1,0.5]];portConstraint=eastwest;whiteSpace=wrap;html=1;" parent="keCxKg6TDDwjZgesL6dW-101" vertex="1">
          <mxGeometry y="130" width="200" height="26" as="geometry" />
        </mxCell>
        <mxCell id="keCxKg6TDDwjZgesL6dW-102" value="loadHero()" style="text;align=left;verticalAlign=top;spacingLeft=4;spacingRight=4;overflow=hidden;rotatable=0;points=[[0,0.5],[1,0.5]];portConstraint=eastwest;whiteSpace=wrap;html=1;fillColor=#f5f5f5;fontColor=#333333;strokeColor=#666666;" parent="keCxKg6TDDwjZgesL6dW-101" vertex="1">
          <mxGeometry y="156" width="200" height="26" as="geometry" />
        </mxCell>
        <mxCell id="keCxKg6TDDwjZgesL6dW-103" value="newHero()" style="text;align=left;verticalAlign=top;spacingLeft=4;spacingRight=4;overflow=hidden;rotatable=0;points=[[0,0.5],[1,0.5]];portConstraint=eastwest;whiteSpace=wrap;html=1;" parent="keCxKg6TDDwjZgesL6dW-101" vertex="1">
          <mxGeometry y="182" width="200" height="26" as="geometry" />
        </mxCell>
        <mxCell id="keCxKg6TDDwjZgesL6dW-104" value="selectDungeon()" style="text;align=left;verticalAlign=top;spacingLeft=4;spacingRight=4;overflow=hidden;rotatable=0;points=[[0,0.5],[1,0.5]];portConstraint=eastwest;whiteSpace=wrap;html=1;fillColor=#f5f5f5;fontColor=#333333;strokeColor=#666666;" parent="keCxKg6TDDwjZgesL6dW-101" vertex="1">
          <mxGeometry y="208" width="200" height="26" as="geometry" />
        </mxCell>
        <mxCell id="keCxKg6TDDwjZgesL6dW-105" value="save()" style="text;align=left;verticalAlign=top;spacingLeft=4;spacingRight=4;overflow=hidden;rotatable=0;points=[[0,0.5],[1,0.5]];portConstraint=eastwest;whiteSpace=wrap;html=1;" parent="keCxKg6TDDwjZgesL6dW-101" vertex="1">
          <mxGeometry y="234" width="200" height="26" as="geometry" />
        </mxCell>
        <mxCell id="J_8SCp2FD8T-etfwv4nt-9" value="resetDatabase()" style="text;align=left;verticalAlign=top;spacingLeft=4;spacingRight=4;overflow=hidden;rotatable=0;points=[[0,0.5],[1,0.5]];portConstraint=eastwest;whiteSpace=wrap;html=1;fillColor=#f5f5f5;fontColor=#333333;strokeColor=#666666;" vertex="1" parent="keCxKg6TDDwjZgesL6dW-101">
          <mxGeometry y="260" width="200" height="26" as="geometry" />
        </mxCell>
        <mxCell id="J_8SCp2FD8T-etfwv4nt-8" value="initDatabase()" style="text;align=left;verticalAlign=top;spacingLeft=4;spacingRight=4;overflow=hidden;rotatable=0;points=[[0,0.5],[1,0.5]];portConstraint=eastwest;whiteSpace=wrap;html=1;" vertex="1" parent="keCxKg6TDDwjZgesL6dW-101">
          <mxGeometry y="286" width="200" height="26" as="geometry" />
        </mxCell>
        <mxCell id="keCxKg6TDDwjZgesL6dW-113" style="edgeStyle=orthogonalEdgeStyle;rounded=0;orthogonalLoop=1;jettySize=auto;html=1;endArrow=none;endFill=0;strokeWidth=2;startArrow=diamondThin;startFill=1;startSize=13;" parent="keCxKg6TDDwjZgesL6dW-85" source="keCxKg6TDDwjZgesL6dW-122" target="keCxKg6TDDwjZgesL6dW-101" edge="1">
          <mxGeometry relative="1" as="geometry">
            <mxPoint x="413" y="505" as="sourcePoint" />
            <mxPoint x="427" y="505" as="targetPoint" />
            <Array as="points">
              <mxPoint x="506" y="506" />
              <mxPoint x="506" y="506" />
            </Array>
          </mxGeometry>
        </mxCell>
        <mxCell id="keCxKg6TDDwjZgesL6dW-119" style="edgeStyle=orthogonalEdgeStyle;rounded=0;orthogonalLoop=1;jettySize=auto;html=1;endArrow=block;endFill=0;strokeWidth=2;endSize=8;" parent="keCxKg6TDDwjZgesL6dW-85" source="keCxKg6TDDwjZgesL6dW-87" target="keCxKg6TDDwjZgesL6dW-114" edge="1">
          <mxGeometry relative="1" as="geometry">
            <mxPoint x="300" y="110" as="targetPoint" />
            <Array as="points">
              <mxPoint x="290" y="80" />
              <mxPoint x="290" y="80" />
            </Array>
          </mxGeometry>
        </mxCell>
        <mxCell id="keCxKg6TDDwjZgesL6dW-120" style="edgeStyle=orthogonalEdgeStyle;rounded=0;orthogonalLoop=1;jettySize=auto;html=1;endArrow=block;endFill=0;strokeWidth=2;endSize=8;" parent="keCxKg6TDDwjZgesL6dW-85" source="keCxKg6TDDwjZgesL6dW-93" target="keCxKg6TDDwjZgesL6dW-114" edge="1">
          <mxGeometry relative="1" as="geometry">
            <mxPoint x="480" y="110" as="targetPoint" />
            <Array as="points">
              <mxPoint x="490" y="80" />
              <mxPoint x="490" y="80" />
            </Array>
          </mxGeometry>
        </mxCell>
        <mxCell id="keCxKg6TDDwjZgesL6dW-114" value="Character" style="swimlane;fontStyle=0;childLayout=stackLayout;horizontal=1;startSize=26;fillColor=none;horizontalStack=0;resizeParent=1;resizeParentMax=0;resizeLast=0;collapsible=1;marginBottom=0;whiteSpace=wrap;html=1;" parent="keCxKg6TDDwjZgesL6dW-85" vertex="1">
          <mxGeometry x="320" y="60" width="140" height="156" as="geometry">
            <mxRectangle x="240" y="240" width="100" height="30" as="alternateBounds" />
          </mxGeometry>
        </mxCell>
        <mxCell id="keCxKg6TDDwjZgesL6dW-115" value="name : string" style="text;align=left;verticalAlign=top;spacingLeft=4;spacingRight=4;overflow=hidden;rotatable=0;points=[[0,0.5],[1,0.5]];portConstraint=eastwest;whiteSpace=wrap;html=1;" parent="keCxKg6TDDwjZgesL6dW-114" vertex="1">
          <mxGeometry y="26" width="140" height="26" as="geometry" />
        </mxCell>
        <mxCell id="keCxKg6TDDwjZgesL6dW-116" value="hp : int" style="text;strokeColor=#666666;fillColor=#f5f5f5;align=left;verticalAlign=top;spacingLeft=4;spacingRight=4;overflow=hidden;rotatable=0;points=[[0,0.5],[1,0.5]];portConstraint=eastwest;whiteSpace=wrap;html=1;fontColor=#333333;" parent="keCxKg6TDDwjZgesL6dW-114" vertex="1">
          <mxGeometry y="52" width="140" height="26" as="geometry" />
        </mxCell>
        <mxCell id="keCxKg6TDDwjZgesL6dW-117" value="strength : int" style="text;align=left;verticalAlign=top;spacingLeft=4;spacingRight=4;overflow=hidden;rotatable=0;points=[[0,0.5],[1,0.5]];portConstraint=eastwest;whiteSpace=wrap;html=1;" parent="keCxKg6TDDwjZgesL6dW-114" vertex="1">
          <mxGeometry y="78" width="140" height="26" as="geometry" />
        </mxCell>
        <mxCell id="J_8SCp2FD8T-etfwv4nt-12" value="xp : int" style="text;align=left;verticalAlign=top;spacingLeft=4;spacingRight=4;overflow=hidden;rotatable=0;points=[[0,0.5],[1,0.5]];portConstraint=eastwest;whiteSpace=wrap;html=1;fillColor=#f5f5f5;fontColor=#333333;strokeColor=#666666;" vertex="1" parent="keCxKg6TDDwjZgesL6dW-114">
          <mxGeometry y="104" width="140" height="26" as="geometry" />
        </mxCell>
        <mxCell id="dC71RjP6gdRrrfViqa-_-1" value="attack()" style="text;align=left;verticalAlign=top;spacingLeft=4;spacingRight=4;overflow=hidden;rotatable=0;points=[[0,0.5],[1,0.5]];portConstraint=eastwest;whiteSpace=wrap;html=1;" parent="keCxKg6TDDwjZgesL6dW-114" vertex="1">
          <mxGeometry y="130" width="140" height="26" as="geometry" />
        </mxCell>
        <mxCell id="keCxKg6TDDwjZgesL6dW-122" value="main" style="swimlane;fontStyle=0;childLayout=stackLayout;horizontal=1;startSize=26;fillColor=none;horizontalStack=0;resizeParent=1;resizeParentMax=0;resizeLast=0;collapsible=1;marginBottom=0;whiteSpace=wrap;html=1;" parent="keCxKg6TDDwjZgesL6dW-85" vertex="1">
          <mxGeometry x="550" y="480" width="140" height="52" as="geometry">
            <mxRectangle x="240" y="240" width="100" height="30" as="alternateBounds" />
          </mxGeometry>
        </mxCell>
        <mxCell id="keCxKg6TDDwjZgesL6dW-125" value="&amp;nbsp;" style="text;strokeColor=none;fillColor=none;align=left;verticalAlign=top;spacingLeft=4;spacingRight=4;overflow=hidden;rotatable=0;points=[[0,0.5],[1,0.5]];portConstraint=eastwest;whiteSpace=wrap;html=1;fontColor=#333333;" parent="keCxKg6TDDwjZgesL6dW-122" vertex="1">
          <mxGeometry y="26" width="140" height="26" as="geometry" />
        </mxCell>
        <mxCell id="dC71RjP6gdRrrfViqa-_-17" value="Dungeon" style="swimlane;fontStyle=0;childLayout=stackLayout;horizontal=1;startSize=26;fillColor=none;horizontalStack=0;resizeParent=1;resizeParentMax=0;resizeLast=0;collapsible=1;marginBottom=0;whiteSpace=wrap;html=1;" parent="keCxKg6TDDwjZgesL6dW-85" vertex="1">
          <mxGeometry x="550" y="280" width="140" height="104" as="geometry">
            <mxRectangle x="240" y="240" width="100" height="30" as="alternateBounds" />
          </mxGeometry>
        </mxCell>
        <mxCell id="dC71RjP6gdRrrfViqa-_-18" value="&lt;div&gt;name : string&lt;/div&gt;" style="text;align=left;verticalAlign=top;spacingLeft=4;spacingRight=4;overflow=hidden;rotatable=0;points=[[0,0.5],[1,0.5]];portConstraint=eastwest;whiteSpace=wrap;html=1;" parent="dC71RjP6gdRrrfViqa-_-17" vertex="1">
          <mxGeometry y="26" width="140" height="26" as="geometry" />
        </mxCell>
        <mxCell id="dC71RjP6gdRrrfViqa-_-54" value="gold : int" style="text;strokeColor=#666666;fillColor=#f5f5f5;align=left;verticalAlign=top;spacingLeft=4;spacingRight=4;overflow=hidden;rotatable=0;points=[[0,0.5],[1,0.5]];portConstraint=eastwest;whiteSpace=wrap;html=1;fontColor=#333333;" parent="dC71RjP6gdRrrfViqa-_-17" vertex="1">
          <mxGeometry y="52" width="140" height="26" as="geometry" />
        </mxCell>
        <mxCell id="J_8SCp2FD8T-etfwv4nt-11" value="enemies : std::vector" style="text;align=left;verticalAlign=top;spacingLeft=4;spacingRight=4;overflow=hidden;rotatable=0;points=[[0,0.5],[1,0.5]];portConstraint=eastwest;whiteSpace=wrap;html=1;" vertex="1" parent="dC71RjP6gdRrrfViqa-_-17">
          <mxGeometry y="78" width="140" height="26" as="geometry" />
        </mxCell>
        <mxCell id="dC71RjP6gdRrrfViqa-_-20" style="edgeStyle=orthogonalEdgeStyle;rounded=0;orthogonalLoop=1;jettySize=auto;html=1;strokeWidth=2;endSize=13;startArrow=none;startFill=0;endArrow=diamondThin;endFill=1;" parent="keCxKg6TDDwjZgesL6dW-85" source="keCxKg6TDDwjZgesL6dW-93" target="dC71RjP6gdRrrfViqa-_-17" edge="1">
          <mxGeometry relative="1" as="geometry">
            <mxPoint x="307" y="396" as="sourcePoint" />
            <mxPoint x="307" y="450" as="targetPoint" />
          </mxGeometry>
        </mxCell>
        <mxCell id="J_8SCp2FD8T-etfwv4nt-1" style="edgeStyle=orthogonalEdgeStyle;rounded=0;orthogonalLoop=1;jettySize=auto;html=1;strokeWidth=2;endSize=13;startArrow=none;startFill=0;endArrow=diamondThin;endFill=1;entryX=0.998;entryY=0.063;entryDx=0;entryDy=0;entryPerimeter=0;" edge="1" parent="keCxKg6TDDwjZgesL6dW-85" target="keCxKg6TDDwjZgesL6dW-101">
          <mxGeometry relative="1" as="geometry">
            <Array as="points">
              <mxPoint x="550" y="300" />
              <mxPoint x="520" y="300" />
            </Array>
            <mxPoint x="550" y="300" as="sourcePoint" />
            <mxPoint x="486" y="300" as="targetPoint" />
          </mxGeometry>
        </mxCell>
      </root>
    </mxGraphModel>
  </diagram>
</mxfile>
